<svg width="146" height="22" viewBox="0 0 146 22" fill="none" xmlns="http://www.w3.org/2000/svg">
<path d="M22.168 2.504C22.296 2.056 22.488 1.69334 22.744 1.416C23 1.11734 23.2774 0.968002 23.576 0.968002C24.3014 0.968002 24.824 1.10667 25.144 1.384C25.464 1.66134 25.624 2.14134 25.624 2.824C25.624 3.016 25.4747 3.56 25.176 4.456C24.5147 6.48267 23.7894 8.98934 23 11.976C22.808 12.6587 22.648 13.256 22.52 13.768C22.4134 14.28 22.3174 14.7067 22.232 15.048C21.72 17.2453 21.272 18.8987 20.888 20.008C20.76 20.328 20.536 20.584 20.216 20.776C19.896 20.9467 19.5547 21.032 19.192 21.032C18.8294 21.032 18.4667 20.9573 18.104 20.808C17.7627 20.6373 17.5174 20.4453 17.368 20.232C16.7067 18.9307 15.8854 17.16 14.904 14.92C13.944 12.6587 13.1974 10.6853 12.664 9C11.3414 12.3493 10.1574 15.5813 9.11203 18.696C9.04803 18.888 8.97336 19.1013 8.88803 19.336C8.82403 19.5493 8.74936 19.7733 8.66403 20.008C8.5147 20.328 8.30136 20.584 8.02403 20.776C7.7467 20.9467 7.43736 21.032 7.09603 21.032C6.71203 21.032 6.3387 20.9573 5.97603 20.808C5.61336 20.6373 5.36803 20.4453 5.24003 20.232C4.9627 19.7627 4.66403 19.0373 4.34403 18.056C4.04536 17.0747 3.64003 15.6987 3.12803 13.928L2.32803 11.208C1.77336 9.43734 1.29336 7.624 0.888029 5.768C0.482696 3.912 0.280029 2.80267 0.280029 2.44C0.280029 1.992 0.504029 1.64 0.952029 1.384C1.40003 1.10667 1.84803 0.968002 2.29603 0.968002C2.55203 0.968002 2.8187 1.05334 3.09603 1.224C3.37336 1.37334 3.5547 1.64 3.64003 2.024C4.3867 6.01334 5.48536 10.6427 6.93603 15.912C7.4907 14.5893 8.0987 12.9787 8.76003 11.08C9.4427 9.18134 10.0934 7.336 10.712 5.544L11.032 4.584C11.1174 4.264 11.3307 4.01867 11.672 3.848C12.0347 3.656 12.3974 3.56 12.76 3.56C13.2294 3.56 13.6134 3.67734 13.912 3.912C14.2107 4.14667 14.4027 4.40267 14.488 4.68C14.5094 4.76534 14.936 6.03467 15.768 8.488C16.6 10.9413 17.592 13.416 18.744 15.912C19.1707 14.6533 19.6827 12.6373 20.28 9.864L20.76 7.752C21.336 5.49067 21.8054 3.74134 22.168 2.504Z" fill="url(#paint0_linear_188_70)"/>
<path d="M43.5673 20.52C43.2899 20.1573 43.0553 19.7627 42.8633 19.336C42.6713 18.888 42.4686 18.3547 42.2553 17.736C42.2126 17.6293 42.0846 17.3093 41.8713 16.776C41.6793 16.2427 41.4553 15.784 41.1993 15.4C39.8553 15.592 38.7566 15.688 37.9033 15.688C37.4339 15.688 36.9113 15.6773 36.3353 15.656C35.7806 15.6133 35.3646 15.592 35.0873 15.592C34.0206 15.5067 33.1673 15.464 32.5273 15.464C32.2713 15.8053 32.0473 16.168 31.8553 16.552C31.6846 16.936 31.4606 17.512 31.1833 18.28C30.7993 19.3893 30.4686 20.1787 30.1913 20.648C29.9993 20.968 29.6259 21.128 29.0713 21.128C28.6019 21.128 28.1646 21.032 27.7593 20.84C27.3753 20.6267 27.1833 20.3387 27.1833 19.976C27.3539 19.1653 27.6206 18.312 27.9833 17.416C28.3673 16.4987 28.9113 15.2827 29.6153 13.768L30.8953 10.632C31.5993 8.84 32.2393 7.304 32.8153 6.024C33.4126 4.744 34.1913 3.22934 35.1513 1.48C35.2793 1.224 35.4926 1.01067 35.7913 0.840002C36.0899 0.648002 36.4206 0.552002 36.7833 0.552002C37.1886 0.552002 37.4766 0.584002 37.6473 0.648003C37.8393 0.69067 37.9886 0.776004 38.0953 0.904003C38.2019 1.01067 38.3619 1.24534 38.5753 1.608C39.3006 2.73867 39.9193 3.90134 40.4313 5.096C40.9646 6.29067 41.6366 7.944 42.4473 10.056L43.1193 11.752C43.7166 13.288 44.2286 14.5787 44.6553 15.624C45.1033 16.648 45.5939 17.5867 46.1273 18.44C46.4686 18.9947 46.6393 19.3787 46.6393 19.592C46.6393 20.104 46.4793 20.4987 46.1593 20.776C45.8606 21.032 45.4659 21.16 44.9753 21.16C44.3566 21.16 43.8873 20.9467 43.5673 20.52ZM40.2713 12.776C39.9299 12.0507 39.4393 10.792 38.7993 9C38.1379 7.08 37.4766 5.55467 36.8153 4.424C36.4099 5.448 35.8126 6.77067 35.0233 8.392C34.4899 9.39467 33.8819 10.8453 33.1993 12.744C34.5646 12.9147 36.0366 13 37.6153 13C38.7459 13 39.6313 12.9253 40.2713 12.776Z" fill="url(#paint1_linear_188_70)"/>
<path d="M51.716 0.680002C52.1214 0.680002 52.484 0.786669 52.804 1C53.1454 1.21334 53.348 1.58667 53.412 2.12C53.668 3.80534 53.828 5.49067 53.892 7.176C53.9774 8.84 54.02 10.728 54.02 12.84C54.02 13.736 53.9454 15.368 53.796 17.736C54.7347 17.8213 55.46 17.864 55.972 17.864C56.3347 17.864 57.156 17.8107 58.436 17.704C59.1827 17.5973 59.8334 17.544 60.388 17.544C60.9 17.544 61.3694 17.5973 61.796 17.704C62.2227 17.7893 62.66 17.9387 63.108 18.152C63.556 18.408 63.78 18.8027 63.78 19.336C63.78 19.7627 63.6414 20.1467 63.364 20.488C63.108 20.8293 62.7987 21 62.436 21C62.18 21 61.7747 20.9573 61.22 20.872C60.2174 20.7227 59.2574 20.648 58.34 20.648C58.0414 20.648 57.7 20.6693 57.316 20.712C56.9534 20.7333 56.6867 20.744 56.516 20.744C56.004 20.808 55.492 20.84 54.98 20.84C53.9347 20.84 52.996 20.7867 52.164 20.68C51.7374 20.6373 51.3107 20.4773 50.884 20.2C50.4574 19.9013 50.244 19.4747 50.244 18.92C50.244 18.6 50.2867 17.7787 50.372 16.456C50.5214 14.2587 50.596 12.584 50.596 11.432C50.596 10.536 50.5534 9.59734 50.468 8.616C50.3827 7.63467 50.3294 7.016 50.308 6.76C50.116 4.94667 50.02 3.45334 50.02 2.28C50.02 1.72534 50.148 1.32 50.404 1.064C50.6814 0.808002 51.1187 0.680002 51.716 0.680002Z" fill="url(#paint2_linear_188_70)"/>
<path d="M84.1283 19.208C84.3416 19.3147 84.5016 19.4533 84.6083 19.624C84.7363 19.7947 84.8003 20.04 84.8003 20.36C84.8003 20.7653 84.6403 21.0853 84.3203 21.32C84.0003 21.576 83.6483 21.704 83.2643 21.704C82.7949 21.704 82.2616 21.5867 81.6643 21.352C80.4696 20.8187 79.2643 19.7307 78.0483 18.088C76.8323 16.424 75.4989 14.2373 74.0483 11.528C72.8323 12.4667 71.5949 13.3413 70.3363 14.152C70.3363 14.6 70.3469 15.1227 70.3683 15.72C70.4109 16.296 70.4323 16.7227 70.4323 17C70.4749 18.2373 70.4963 19.0587 70.4963 19.464C70.4963 19.8267 70.3789 20.1787 70.1443 20.52C69.9096 20.84 69.5576 21 69.0883 21C68.4056 21 67.9149 20.8933 67.6163 20.68C67.3176 20.4453 67.1363 20.1147 67.0723 19.688C66.9016 18.6213 66.8163 17.5973 66.8163 16.616C66.8163 15.5067 66.9016 13.9067 67.0723 11.816C67.2429 9.81067 67.3283 8.30667 67.3283 7.304C67.3283 6.92 67.3069 6.36534 67.2643 5.64C67.2429 5.064 67.1789 4.53067 67.0723 4.04C66.9869 3.35734 66.9443 2.87734 66.9443 2.6C66.9443 1.91734 67.0936 1.42667 67.3923 1.128C67.6909 0.829336 68.1496 0.680002 68.7683 0.680002C69.2376 0.680002 69.6216 0.818669 69.9203 1.096C70.2403 1.352 70.4216 1.704 70.4643 2.152C70.5709 3.96534 70.6243 5.36267 70.6243 6.344C70.6029 6.87734 70.5603 7.64534 70.4963 8.648C70.4536 9.62934 70.4109 10.248 70.3683 10.504C71.0936 10.0987 72.5123 8.936 74.6243 7.016C76.7576 5.07467 78.2723 3.54934 79.1683 2.44L79.5843 1.96C79.9256 1.512 80.2136 1.20267 80.4483 1.032C80.6829 0.861336 81.0029 0.776003 81.4083 0.776003C81.8136 0.776003 82.1763 0.91467 82.4963 1.192C82.8376 1.448 83.0083 1.75734 83.0083 2.12C83.0083 2.824 82.6456 3.53867 81.9203 4.264C80.1496 6.09867 78.3789 7.80534 76.6083 9.384C77.8669 11.752 79.0936 13.7893 80.2883 15.496C81.5043 17.1813 82.7843 18.4187 84.1283 19.208Z" fill="url(#paint3_linear_188_70)"/>
<path d="M102.326 15.208C102.326 16.2107 102.091 17.0747 101.622 17.8C101.174 18.504 100.427 19.1547 99.3818 19.752C98.6778 20.1787 97.8564 20.4987 96.9178 20.712C95.9791 20.9253 95.0298 21.032 94.0698 21.032C93.0884 21.032 91.8724 20.712 90.4218 20.072C89.3764 19.56 88.5444 18.952 87.9258 18.248C87.3284 17.544 87.0298 16.776 87.0298 15.944C87.0298 15.368 87.1578 14.952 87.4138 14.696C87.6698 14.4187 88.0858 14.28 88.6618 14.28C88.9604 14.28 89.2698 14.408 89.5898 14.664C89.9098 14.8987 90.1018 15.1333 90.1658 15.368C90.4644 16.2427 90.9871 16.9147 91.7338 17.384C92.4804 17.832 93.4084 18.056 94.5178 18.056C95.7978 18.056 96.8644 17.8213 97.7178 17.352C98.5924 16.8827 99.0298 16.2533 99.0298 15.464C99.0298 14.696 98.5604 14.0133 97.6218 13.416C96.6831 12.8187 95.7231 12.4027 94.7418 12.168C93.3338 11.784 92.0858 11.3253 90.9978 10.792C89.8671 10.2373 89.0244 9.55467 88.4698 8.744C87.9151 7.93334 87.6378 7.08 87.6378 6.184C87.6378 5.352 87.9258 4.50934 88.5018 3.656C89.0778 2.78134 89.7604 2.152 90.5498 1.768C90.9764 1.55467 91.7018 1.33067 92.7258 1.096C93.7711 0.840003 94.5284 0.712004 94.9978 0.712004C95.6164 0.712004 96.2991 0.78667 97.0458 0.936003C97.7924 1.08534 98.4004 1.29867 98.8698 1.576C99.8084 2.10934 100.502 2.58934 100.95 3.016C101.398 3.44267 101.622 3.976 101.622 4.616C101.622 5 101.472 5.34134 101.174 5.64C100.896 5.93867 100.406 6.088 99.7018 6.088C99.5311 6.088 99.3604 6.01334 99.1898 5.864C99.0191 5.71467 98.8058 5.49067 98.5498 5.192C98.2084 4.744 97.8778 4.44534 97.5578 4.296C97.2378 4.18934 96.7684 4.072 96.1498 3.944C95.5524 3.816 95.0191 3.752 94.5498 3.752C94.0378 3.752 93.5044 3.85867 92.9498 4.072C92.3951 4.28534 91.9258 4.59467 91.5418 5C91.1791 5.384 90.9978 5.832 90.9978 6.344C90.9978 6.77067 91.1898 7.144 91.5738 7.464C91.9791 7.76267 92.4591 8.008 93.0138 8.2C93.6538 8.456 94.3471 8.68 95.0938 8.872C96.0751 9.17067 96.8751 9.448 97.4938 9.704C98.1338 9.93867 98.7524 10.2373 99.3498 10.6C100.395 11.2187 101.152 11.8587 101.622 12.52C102.091 13.16 102.326 14.056 102.326 15.208Z" fill="url(#paint4_linear_188_70)"/>
<path d="M109.927 2.44C109.927 3.05867 109.905 4.02934 109.863 5.352L109.831 7.848C109.831 9.87467 109.98 11.5707 110.279 12.936C110.471 13.832 110.673 14.5147 110.887 14.984C111.121 15.432 111.473 15.944 111.943 16.52C112.305 16.9467 112.775 17.288 113.351 17.544C113.948 17.7787 114.535 17.896 115.111 17.896C116.113 17.896 116.945 17.7467 117.607 17.448C118.289 17.1493 118.801 16.6373 119.143 15.912C119.783 14.5893 120.103 12.9573 120.103 11.016C120.103 9.8 120.028 8.31734 119.879 6.568C119.751 4.648 119.687 3.24 119.687 2.344C119.687 1.85334 119.921 1.45867 120.391 1.16C120.86 0.861337 121.287 0.712004 121.671 0.712004C122.332 0.712004 122.78 0.893337 123.015 1.256C123.271 1.61867 123.399 2.04534 123.399 2.536C123.399 3.15467 123.367 3.688 123.303 4.136C123.26 4.69067 123.239 5.08534 123.239 5.32C123.239 6.13067 123.281 7.41067 123.367 9.16C123.388 9.608 123.409 10.1307 123.431 10.728C123.452 11.3253 123.463 11.9653 123.463 12.648C123.463 14.0987 123.121 15.4747 122.439 16.776C121.756 18.056 120.796 19.0907 119.559 19.88C118.321 20.6693 116.913 21.064 115.335 21.064C112.881 21.064 110.993 20.4133 109.671 19.112C108.348 17.7893 107.452 15.9547 106.983 13.608C106.705 12.2213 106.524 10.6427 106.439 8.872C106.375 7.10134 106.343 4.86134 106.343 2.152C106.343 1.81067 106.503 1.49067 106.823 1.192C107.164 0.893337 107.527 0.744003 107.911 0.744003C109.255 0.744003 109.927 1.30934 109.927 2.44Z" fill="url(#paint5_linear_188_70)"/>
<path d="M141.801 3.016C141.801 2.39734 141.94 1.864 142.217 1.416C142.516 0.94667 142.953 0.712004 143.529 0.712004C144.02 0.712004 144.457 0.808004 144.841 1C145.225 1.192 145.417 1.512 145.417 1.96C145.417 2.83467 145.375 4.06134 145.289 5.64C145.204 7.176 145.161 8.31734 145.161 9.064C145.161 10.2373 145.204 11.8053 145.289 13.768C145.375 15.6453 145.417 17.0213 145.417 17.896C145.417 18.6 145.407 19.1227 145.385 19.464C145.385 19.8053 145.193 20.1467 144.809 20.488C144.447 20.808 143.881 20.968 143.113 20.968C142.708 20.968 142.356 20.904 142.057 20.776C141.78 20.6267 141.588 20.4667 141.481 20.296C140.479 19.08 139.017 17.0107 137.097 14.088C134.943 10.824 133.183 8.328 131.817 6.6C131.988 8.136 132.073 10.0133 132.073 12.232C132.073 13.2133 132.052 14.4933 132.009 16.072C131.988 17.6293 131.945 18.6533 131.881 19.144C131.796 19.7627 131.604 20.2427 131.305 20.584C131.028 20.904 130.58 21.064 129.961 21.064C129.492 21.064 129.14 20.936 128.905 20.68C128.692 20.4027 128.564 19.9333 128.521 19.272C128.5 18.3973 128.553 17.0853 128.681 15.336C128.703 15.0587 128.735 14.5787 128.777 13.896C128.82 13.2133 128.841 12.6053 128.841 12.072C128.841 10.6 128.767 8.91467 128.617 7.016C128.489 4.92534 128.425 3.37867 128.425 2.376C128.425 1.864 128.607 1.46934 128.969 1.192C129.353 0.91467 129.791 0.776003 130.281 0.776003C130.708 0.776003 131.156 0.882669 131.625 1.096C133.46 3.4 135.945 6.83467 139.081 11.4L142.089 16.008C142.111 15.6667 142.121 15.1867 142.121 14.568C142.121 13.48 142.1 12.3067 142.057 11.048C142.015 9.78934 141.983 8.936 141.961 8.488C141.855 6.41867 141.801 4.59467 141.801 3.016Z" fill="url(#paint6_linear_188_70)"/>
<defs>
<linearGradient id="paint0_linear_188_70" x1="73.5" y1="-9" x2="73.5" y2="29" gradientUnits="userSpaceOnUse">
<stop offset="0.291667" stop-color="#FCBB51"/>
<stop offset="1" stop-color="#FF8400" stop-opacity="0.5"/>
</linearGradient>
<linearGradient id="paint1_linear_188_70" x1="73.5" y1="-9" x2="73.5" y2="29" gradientUnits="userSpaceOnUse">
<stop offset="0.291667" stop-color="#FCBB51"/>
<stop offset="1" stop-color="#FF8400" stop-opacity="0.5"/>
</linearGradient>
<linearGradient id="paint2_linear_188_70" x1="73.5" y1="-9" x2="73.5" y2="29" gradientUnits="userSpaceOnUse">
<stop offset="0.291667" stop-color="#FCBB51"/>
<stop offset="1" stop-color="#FF8400" stop-opacity="0.5"/>
</linearGradient>
<linearGradient id="paint3_linear_188_70" x1="73.5" y1="-9" x2="73.5" y2="29" gradientUnits="userSpaceOnUse">
<stop offset="0.291667" stop-color="#FCBB51"/>
<stop offset="1" stop-color="#FF8400" stop-opacity="0.5"/>
</linearGradient>
<linearGradient id="paint4_linear_188_70" x1="73.5" y1="-9" x2="73.5" y2="29" gradientUnits="userSpaceOnUse">
<stop offset="0.291667" stop-color="#FCBB51"/>
<stop offset="1" stop-color="#FF8400" stop-opacity="0.5"/>
</linearGradient>
<linearGradient id="paint5_linear_188_70" x1="73.5" y1="-9" x2="73.5" y2="29" gradientUnits="userSpaceOnUse">
<stop offset="0.291667" stop-color="#FCBB51"/>
<stop offset="1" stop-color="#FF8400" stop-opacity="0.5"/>
</linearGradient>
<linearGradient id="paint6_linear_188_70" x1="73.5" y1="-9" x2="73.5" y2="29" gradientUnits="userSpaceOnUse">
<stop offset="0.291667" stop-color="#FCBB51"/>
<stop offset="1" stop-color="#FF8400" stop-opacity="0.5"/>
</linearGradient>
</defs>
</svg>
