<svg width="210" height="180" viewBox="0 0 210 180" fill="none" xmlns="http://www.w3.org/2000/svg">
<path d="M210 90C210 139.706 162.99 180 105 180C47.0101 180 0 139.706 0 90C0 40.2944 47.0101 0 105 0C162.99 0 210 40.2944 210 90Z" fill="#331C03"/>
<path d="M25.116 65.24C26.0307 63.4107 27.468 62.006 29.428 61.026C31.4533 59.9807 33.838 59.458 36.582 59.458C40.894 59.458 44.324 61.026 46.872 64.162C49.4853 67.2327 50.792 72.1653 50.792 78.96V113.946L73.234 61.418H84.798L87.444 111.006L87.15 113.848L110.474 61.418H123.9L92.54 126H71.666L69.706 96.208L56.77 126H33.152L30.212 78.96C30.016 75.432 29.428 72.5247 28.448 70.238C27.5333 67.886 26.4227 66.22 25.116 65.24Z" fill="url(#paint0_linear_707_13)"/>
<path d="M157.45 80.724C158.43 78.764 158.92 76.8693 158.92 75.04C158.92 73.2107 158.822 71.806 158.626 70.826C158.43 69.7807 158.104 68.866 157.646 68.082C156.666 66.3833 155.196 65.534 153.236 65.534C150.819 65.534 148.63 66.416 146.67 68.18C144.58 70.0093 143.534 72.3613 143.534 75.236C143.534 77.0653 144.155 78.6987 145.396 80.136C146.703 81.508 148.336 82.8473 150.296 84.154C152.256 85.4607 154.347 86.7673 156.568 88.074C158.79 89.3807 160.88 90.818 162.84 92.386C167.348 95.9793 169.602 100.193 169.602 105.028C169.602 108.295 168.72 111.333 166.956 114.142C165.258 116.886 162.971 119.271 160.096 121.296C153.824 125.739 146.54 127.96 138.242 127.96C131.513 127.96 126.417 126.882 122.954 124.726C119.492 122.505 117.76 119.728 117.76 116.396C117.76 110.451 120.08 106.727 124.718 105.224C126.025 104.767 127.658 104.538 129.618 104.538C131.644 104.538 133.8 104.963 136.086 105.812C135.041 108.491 134.518 111.039 134.518 113.456C134.518 118.683 136.38 121.296 140.104 121.296C142.522 121.296 144.71 120.414 146.67 118.65C148.696 116.886 149.708 115.024 149.708 113.064C149.708 111.039 149.055 109.307 147.748 107.87C146.507 106.433 144.939 105.159 143.044 104.048C141.15 102.872 139.092 101.729 136.87 100.618C134.714 99.5073 132.689 98.168 130.794 96.6C126.352 93.0067 124.13 88.3353 124.13 82.586C124.13 78.862 125.045 75.5627 126.874 72.688C128.704 69.748 131.088 67.298 134.028 65.338C139.908 61.3527 146.442 59.36 153.628 59.36C160.88 59.36 166.238 60.438 169.7 62.594C173.228 64.75 174.992 67.6573 174.992 71.316C174.992 74.5173 173.751 77.1307 171.268 79.156C169.112 80.8547 166.728 81.704 164.114 81.704C161.501 81.704 159.28 81.3773 157.45 80.724Z" fill="url(#paint1_linear_707_13)"/>
<defs>
<linearGradient id="paint0_linear_707_13" x1="105.942" y1="-81.2859" x2="105.942" y2="242.088" gradientUnits="userSpaceOnUse">
<stop offset="0.291667" stop-color="#FCBB51"/>
<stop offset="1" stop-color="#FF8400" stop-opacity="0.5"/>
</linearGradient>
<linearGradient id="paint1_linear_707_13" x1="105.942" y1="-81.2859" x2="105.942" y2="242.088" gradientUnits="userSpaceOnUse">
<stop offset="0.291667" stop-color="#FCBB51"/>
<stop offset="1" stop-color="#FF8400" stop-opacity="0.5"/>
</linearGradient>
</defs>
</svg>
